<?xml version="1.0" encoding="utf-8"?>
<!-- Generator: Adobe Illustrator 19.1.0, SVG Export Plug-In . SVG Version: 6.00 Build 0)  -->
<svg version="1.1" id="Layer_1" xmlns="http://www.w3.org/2000/svg" xmlns:xlink="http://www.w3.org/1999/xlink" x="0px" y="0px"
	 viewBox="0 0 660 303.4" style="enable-background:new 0 0 660 303.4;" xml:space="preserve">
<style type="text/css">
	.st0{fill:#D8E2E6;}
</style>
<path class="st0" d="M288.7,296.4l9.2,9l9.1-9.2c33.6-30.3,55.6-50.7,55.4-75.5c-0.2-20.2-16-35.7-36.1-35.5
	c-11.1,0.1-22.1,5.4-29.2,13.9c-7.2-8.4-18.4-13.5-29.5-13.4c-20.2,0.2-35.7,16-35.5,36.1C232.2,246.7,254.6,266.7,288.7,296.4z"/>
<path class="st0" d="M476.2,189.8c-22.7,65.3-77.6,53.1-77.6,53.1S401,226,415,211.2c-20.3-2.7-33.1-14.2-33.1-14.2
	S416.6,153.4,476.2,189.8z M439.8,161.2c10.1,1.2,21,4.2,32.6,9.8c0.3,0,0.6,0,0.9,0c-0.1,0.1-0.1,0.2-0.2,0.4
	c3.5,1.7,7.1,3.7,10.7,5.9l10.2,6.3l-3.9,11.2c-0.6,1.6-1.2,3-1.8,4.5c16.3-7.7,35.6-25,39.4-63.4
	C472.2,117.9,446.7,150.1,439.8,161.2z M566.7,71.2c-58.5-4.6-75.8,33-79.8,45.2c9.9-1.1,20.9-0.6,33.1,2c0.6-0.2,1.2-0.3,1.8-0.5
	c-0.1,0.3-0.1,0.6-0.2,0.9c3.5,0.8,7.1,1.8,10.8,3l11.4,3.7l-1.2,11.8c-0.2,1.9-0.5,3.7-0.8,5.6C556.3,131.8,572.1,110.6,566.7,71.2
	z M522.1,62c9.6-3.4,20.6-5.6,33.4-5.8c0.4-0.2,0.7-0.4,1.1-0.6c0,0.2,0,0.4,0,0.6c3.7,0,7.5,0.1,11.4,0.4l12,0.9l1.6,11.8
	c0.3,1.9,0.3,3.7,0.5,5.6c11.4-14,21.7-38.1,7.9-74.8C531.6,8.6,523.2,49.3,522.1,62z"/>
<path class="st0" d="M214.7,197c0,0-12.8,11.5-33.1,14.2c14,14.7,16.5,31.6,16.5,31.6s-54.9,12.2-77.6-53.1
	C180,153.4,214.7,197,214.7,197z M68.7,135.8c3.8,38.5,23.1,55.7,39.4,63.4c-0.6-1.5-1.3-2.9-1.8-4.5l-3.9-11.2l10.2-6.3
	c3.6-2.2,7.2-4.2,10.7-5.9c-0.1-0.1-0.1-0.2-0.2-0.4c0.3,0,0.6,0,0.9,0c11.6-5.6,22.5-8.6,32.6-9.8
	C149.8,150.1,124.3,117.9,68.7,135.8z M54.7,142.9c-0.3-1.9-0.6-3.6-0.8-5.6l-1.2-11.8l11.4-3.7c3.7-1.2,7.3-2.2,10.8-3
	c-0.1-0.3-0.1-0.6-0.2-0.9c0.6,0.2,1.2,0.3,1.8,0.5c12.2-2.7,23.2-3.1,33.1-2c-4-12.2-21.3-49.8-79.8-45.2
	C24.5,110.6,40.3,131.8,54.7,142.9z M6.6,0c-13.8,36.7-3.5,60.8,7.9,74.8c0.2-1.9,0.3-3.7,0.5-5.6l1.6-11.8l12-0.9
	c4-0.3,7.8-0.4,11.4-0.4c0-0.2,0-0.4,0-0.6c0.4,0.2,0.7,0.4,1.1,0.6C53.9,56.3,65,58.5,74.5,62C73.3,49.3,65,8.6,6.6,0z"/>
</svg>
