<?xml version="1.0" encoding="utf-8"?>
<!-- Generator: Adobe Illustrator 19.1.0, SVG Export Plug-In . SVG Version: 6.00 Build 0)  -->
<svg version="1.1" id="Layer_1" xmlns="http://www.w3.org/2000/svg" xmlns:xlink="http://www.w3.org/1999/xlink" x="0px" y="0px"
	 viewBox="0 0 660 303.4" style="enable-background:new 0 0 660 303.4;" xml:space="preserve">
<style type="text/css">
	.st0{fill:rgba(255,255,255,0.2);}
</style>
<path class="st0" d="M307.8,9l-9.2-9l-9.1,9.2C256,39.5,234,59.9,234.2,84.6c0.2,20.2,16,35.7,36.1,35.5
	c11.1-0.1,22.1-5.4,29.2-13.9c7.2,8.4,18.4,13.5,29.5,13.4c20.2-0.2,35.7-16,35.5-36.1C364.3,58.7,342,38.7,307.8,9z"/>
<path class="st0" d="M120.4,115.7c22.7-65.3,77.6-53.1,77.6-53.1s-2.5,16.9-16.5,31.6c20.3,2.7,33.1,14.2,33.1,14.2
	S180,152.1,120.4,115.7z M156.7,144.2c-10.1-1.2-21-4.2-32.6-9.8c-0.3,0-0.6,0-0.9,0c0.1-0.1,0.1-0.2,0.2-0.4
	c-3.5-1.7-7.1-3.7-10.7-5.9l-10.2-6.3l3.9-11.2c0.6-1.6,1.2-3,1.8-4.5c-16.3,7.7-35.6,25-39.4,63.4
	C124.3,187.6,149.8,155.3,156.7,144.2z M29.8,234.2c58.5,4.6,75.8-33,79.8-45.2c-9.9,1.1-20.9,0.6-33.1-2c-0.6,0.2-1.2,0.3-1.8,0.5
	c0.1-0.3,0.1-0.6,0.2-0.9c-3.5-0.8-7.1-1.8-10.8-3L52.7,180l1.2-11.8c0.2-1.9,0.5-3.7,0.8-5.6C40.3,173.6,24.5,194.9,29.8,234.2z
	 M74.5,243.5c-9.6,3.4-20.6,5.6-33.4,5.8c-0.4,0.2-0.7,0.4-1.1,0.6c0-0.2,0-0.4,0-0.6c-3.7,0-7.5-0.1-11.4-0.4l-12-0.9L15,236.2
	c-0.3-1.9-0.3-3.7-0.5-5.6c-11.4,14-21.7,38.1-7.9,74.8C65,296.8,73.3,256.1,74.5,243.5z"/>
<path class="st0" d="M381.9,108.4c0,0,12.8-11.5,33.1-14.2c-14-14.7-16.5-31.6-16.5-31.6s54.9-12.2,77.6,53.1
	C416.6,152.1,381.9,108.4,381.9,108.4z M527.8,169.6c-3.8-38.5-23.1-55.7-39.4-63.4c0.6,1.5,1.3,2.9,1.8,4.5l3.9,11.2l-10.2,6.3
	c-3.6,2.2-7.2,4.2-10.7,5.9c0.1,0.1,0.1,0.2,0.2,0.4c-0.3,0-0.6,0-0.9,0c-11.6,5.6-22.5,8.6-32.6,9.8
	C446.7,155.3,472.2,187.6,527.8,169.6z M541.9,162.6c0.3,1.9,0.6,3.6,0.8,5.6l1.2,11.8l-11.4,3.7c-3.7,1.2-7.3,2.2-10.8,3
	c0.1,0.3,0.1,0.6,0.2,0.9c-0.6-0.2-1.2-0.3-1.8-0.5c-12.2,2.7-23.2,3.1-33.1,2c4,12.2,21.3,49.8,79.8,45.2
	C572.1,194.9,556.3,173.6,541.9,162.6z M590,305.4c13.8-36.7,3.5-60.8-7.9-74.8c-0.2,1.9-0.3,3.7-0.5,5.6l-1.6,11.8l-12,0.9
	c-4,0.3-7.8,0.4-11.4,0.4c0,0.2,0,0.4,0,0.6c-0.4-0.2-0.7-0.4-1.1-0.6c-12.8-0.2-23.8-2.4-33.4-5.8
	C523.2,256.1,531.6,296.8,590,305.4z"/>
</svg>
