<?xml version="1.0" encoding="utf-8"?>
<!-- Generator: Adobe Illustrator 19.1.0, SVG Export Plug-In . SVG Version: 6.00 Build 0)  -->
<svg version="1.1" id="Layer_1" xmlns="http://www.w3.org/2000/svg" xmlns:xlink="http://www.w3.org/1999/xlink" x="0px" y="0px"
	 viewBox="0 0 426.6735535 354.8847046" style="enable-background:new 0 0 426.6735535 354.8847046;" xml:space="preserve">
<style type="text/css">
	.st0{fill:#010202;}
</style>
<path class="st0" d="M158.8196411,197.6406555c-13.1854706,0-27.3791962-8.5418549-27.3791962-27.294342
	c0-17.4414215,11.569931-41.9888611,32.5785065-69.1168289l1.4641266-1.891716l-2.2660675,0.6039505
	c-6.9446259,1.4192047-16.542984,3.1245804-39.7327728,7.2441101l-4.4472885,0.7886276l-0.159729,0.2778549
	c-26.7968674,39.6861954-60.1440506,89.0738907-102.0131226,89.0738907C6.7782478,197.3262024,0,190.8075104,0,181.1060028
	c0-14.2070465,9.0875769-28.3142548,26.2811012-40.7976074l0.9716473-0.7054443l-0.960001-0.5939636
	c-6.447155-4.8449402-14.1338291-13.8842621-14.1338291-29.428978c0-36.9592514,34.1724167-66.0937347,98.8236542-84.2572479
	C161.2454376,11.2005806,212.8459625,8.2290659,220.9236298,8.2290659c1.1679688,0,2.0797272,0.8668299,2.0797272,1.9715815
	s-0.9117584,1.9699183-2.0797272,1.9699183c-36.8494415,0-65.9356842,42.9605141-96.7289581,88.4449921l-1.948288,2.8783417
	l2.0065155-0.5091171c5.332428-0.9949417,10.8528595-1.9432983,16.2385101-2.8666992
	c9.7148285-1.662117,19.5727386-3.3458633,28.5937653-5.3157806c0.0865173-0.0199661,0.3011475-0.1014938,0.3693542-0.1447525
	C206.7016144,49.000042,268.1650391,0,300.1196594,0c10.661499,0,16.534668,5.5337391,16.534668,15.5813179
	c0,34.4219856-66.804184,63.3817787-129.3241272,79.0063477c-0.0848541,0.0216293-0.2894897,0.1064835-0.3560486,0.1497421
	c-28.0180817,34.9677124-44.807312,65.7576599-44.807312,82.2573853c0,10.9227295,6.3256989,16.6960449,18.2966156,16.6960449
	c31.6251678,0,60.0242615-36.0624695,60.0242615-53.0946045c0-7.6134644-4.0529785-11.6381531-11.721344-11.6381531
	c-22.9102783,0-39.6545868,31.710022-39.6545868,45.1883087c0,3.6686401,1.9915466,5.9380493,3.8383484,5.9380493
	c1.7020569,0,2.4640656,0.8518524,2.4640656,1.6937256c0,0.8934479-0.9051056,1.9383087-3.4506836,1.9383087
	c-6.219223,0-11.2787781-6.2841034-11.2787781-14.005722c0-17.3632355,21.4028931-45.0119553,46.7672424-45.0119553
	c10.7663422,0,17.1951904,5.9430313,17.1951904,15.897438C224.647171,159.872818,194.8438416,197.6406555,158.8196411,197.6406555z
	 M30.3357372,142.100296c-16.8840599,11.889389-26.1812744,25.7420349-26.1812744,39.0057068
	c0,7.6833344,4.7500973,12.2687225,12.70963,12.2687225c23.895237,0,51.5323219-38.1455231,80.7915955-78.5338364
	l1.4641266-2.0198288l-2.2327957,0.6322327c-24.9700394,6.6501389-45.6042633,15.0572205-61.2870712,24.9800262
	l-1.4258614,0.9017639l1.5389977,0.5257568c4.4589348,1.9100189,9.7264671,2.8783417,15.6545219,2.8783417
	c6.4737778,0,12.8776741-1.5955658,18.5162315-4.6136627c0.3078003-0.19133,0.6987915-0.3044739,1.1097412-0.3044739
	c0.8901215,0,1.6704407,0.5457153,1.8983765,1.3243713c0.0948334,0.3227692,0.2845078,1.4425049-1.2361908,2.3226318
	c-6.3872604,3.4157562-13.3934441,5.2142944-20.2881584,5.2142944c-7.3289566,0-14.3135147-1.6038818-20.1983109-4.6386261
	l-0.4375744-0.2229462L30.3357372,142.100296z M190.102066,14.6629105
	c-52.2993164,5.7350559-173.788681,26.4591255-173.788681,94.917099c0,11.6681061,4.9264584,21.3496475,13.8709507,27.2610703
	l0.4941425,0.3260956l0.4009705-0.3277588c17.4979954-11.7346573,41.4697723-21.5010605,71.2514648-29.0280075
	c0,0,0.4558792-0.3078003,0.4558792-0.3094635c28.6370087-39.2486191,56.9046631-75.768631,87.8293915-91.3183365
	L190.102066,14.6629105z M300.1196594,3.9414995c-25.4226074,0-73.3960876,43.2882805-107.2091217,83.5102081l-1.8185272,2.1629181
	l2.6470795-0.8601761c72.1432648-19.4479446,118.7591095-48.1698151,118.7591095-73.1731262
	C312.4981995,7.8563786,308.3320923,3.9414995,300.1196594,3.9414995z"/>
<path class="st0" d="M116.5512543,252.1761017c-0.9616623,0-1.5822525-0.0549011-1.7120285-0.0648804
	c-9.0210266-0.7769928-16.7359848-5.9047699-22.9319077-15.243576l-0.4991379-0.748703l-0.6338959,0.5340729
	c-5.5487137,3.8300323-11.1872711,5.7716675-16.7559509,5.7716675c-1.0115814,0-2.0198288-0.0632172-3.0247574-0.19133
	c-0.3477325-0.0432587-0.6937943-0.0931702-1.0448532-0.1547394c-9.7946854-1.6754303-15.3966408-8.4886169-14.2719231-17.3582306
	c1.5456543-12.1622467,16.090435-19.2017059,27.7785072-24.8569031l0.4442291-0.2179565l0.0133057-0.4226074
	c1.229538-10.9443512,5.1660461-20.12677,10.8029404-25.1963043c3.4573364-3.1062927,7.6617126-4.7467804,12.1589203-4.7467804
	c0.5956345,0,1.1945953,0.0282898,1.7985458,0.0848541c0.0049896,0,0.3427353,0.038269,0.3493958,0.038269
	c4.6053467,0.5873108,6.9762344,3.8366852,6.3589706,8.694931c-1.2311935,9.7098236-10.9110794,15.474823-22.4826813,21.4827423
	l-0.4142838,0.2162933l-0.0166397,0.3959808c-1.2029114,9.3038788-0.6405563,18.7957458,1.5855865,26.728653l0.432579,1.5406647
	l0.943367-1.2128906c4.0330124-4.4289856,7.4154739-10.0708771,9.0493088-15.0938263l0.2196198-0.6755066l-0.5740051-0.267868
	c-4.7301331-2.813446-4.4622574-6.1060791-4.1278381-7.3905182c0.5190964-2.0115051,2.1828766-3.4174042,4.0496445-3.4174042
	c0.038269,0,0.4009705,0.0216217,0.4409027,0.0266266c1.5140381,0.19133,2.743576,0.9250488,3.5571671,2.1196442
	c0.9350433,1.3643036,1.3210373,3.2693329,1.1446762,5.66185l-0.0515747,0.7004547l0.6122742,0.1314392
	c1.6221848,0.519104,3.8416672,0.9550171,6.9895477,1.3742828c2.0913696,0.2645416,4.1594543,0.3993073,6.1393509,0.3993073
	c9.8961792,0,16.4298553-3.3525085,20.1683655-6.1659698c7.3156586-5.5054474,10.491806-11.1207123,9.1857452-16.2351837
	c-1.8684235-7.3073273-8.6433563-9.8778687-11.470108-10.6448822c-0.2878418-0.0782013-0.5240936-0.2845001-0.6389008-0.559021
	c-0.3061371-0.5956421-0.2861633-1.1646576-0.1780243-2.3575897l0.0399323-0.5041199
	c0.0116425-0.2645416,0.1364288-0.5956421,0.3344116-0.7686615c0.1863556-0.1630554,0.4309235-0.319458,0.6755066-0.319458
	c0.0182953,0,0.0349426,0,0.0532379,0.0016632c13.9042206,1.4291992,16.4531403,11.292099,16.8258209,13.2553558
	c1.4408417,7.5751953-3.7118988,17.4680481-11.2504883,21.6025391c-5.1377563,2.8201141-12.8943024,7.0760651-24.0083771,7.0760651
	c-1.9216614,0-3.9032288-0.1280975-5.8881226-0.3793335l-0.5307465-0.0715485
	c-3.1362305-0.4325867-5.4555359-0.8984375-7.3023376-1.467453l-0.8352203-0.2562256l-0.1713715,0.7803192
	c-1.9981995,6.159317-6.1609802,12.7628632-11.4201965,18.1185913L96.0384903,232.3638l0.2728577,0.467514
	c4.1494751,8.8829346,10.5134354,13.9790955,18.915535,15.1487427c0.8418732,0.1064758,1.6804199,0.1580505,2.4990005,0.1580505
	c10.5616837,0,18.3664932-8.6666412,21.7007065-12.3668823c0.4841614-0.5357513,0.8418732-0.9300537,1.0798035-1.1763
	c0.091507-0.0948334,0.2029724-0.1697083,0.3244324-0.2196198c0.1231232-0.0532379,0.2562256-0.0815277,0.3876648-0.0815277
	c0.2046356,0,0.4092865,0.0648956,0.580658,0.1946716c0.3427429,0.2578735,0.4741821,0.7120972,0.3227692,1.1147308
	c-0.886795,2.3392792-3.4573364,4.7667389-6.4338379,7.5785217c-1.029892,0.9716492-2.0963745,1.978241-3.1295776,3.0214233
	C127.2144318,251.5937805,119.5843277,252.1761017,116.5512543,252.1761017z M82.4503784,205.1626282
	c-9.6632462,5.2874908-18.785759,11.6098633-20.1034775,21.9868774c-0.7952881,6.2608032,1.8418045,9.8013306,8.0610275,10.8262177
	c0.2761841,0.0465851,0.5523758,0.0848541,0.8285599,0.1197968c0.9184113,0.1164703,1.8384781,0.1746979,2.7535629,0.1746979
	c5.0379257,0,10.0608902-1.7769165,14.9274521-5.280838l0.6089401-0.4409027l-0.3577118-0.5723419
	c-3.7302017-7.5219574-5.6402206-16.5463104-5.5204315-26.0947571l0.0166397-1.3825989L82.4503784,205.1626282z
	 M107.8629837,173.6273041c-5.735054,0-11.2771149,7.6151276-14.1188507,19.3996887l-0.4675217,1.9416351l1.6388245-1.0381927
	c7.4770355-4.0629578,15.2419052-9.1707764,16.1436768-16.2368622c0.164711-1.299408-0.0299454-2.315979-0.5823212-3.0214233
	c-0.427597-0.5490417-1.0914459-0.9050903-1.8684311-1.0032654
	C108.2972336,173.6389465,108.079277,173.6273041,107.8629837,173.6273041z"/>
<path class="st0" d="M167.4513397,354.8847046c-18.2749786-0.0399475-33.3604889-5.5636902-43.62603-15.9772949
	c-10.2671967-10.4169617-15.6728287-25.6771545-15.6312332-44.1318359
	c0.0898438-39.5930176,38.7528076-77.0264435,79.5554047-77.0264435
	c40.0189514,0.0931702,54.2276459,25.8302155,54.1777344,49.8834991
	c-0.0698853,31.4155579-25.9982605,63.9108582-69.266571,63.915863
	c-23.2946167-0.0549011-38.9940643-10.9942627-41.9971924-29.2609253c-0.1480713-0.7487183-0.0232849-1.4341736,0.3560486-1.9017029
	c0.2928314-0.3460693,0.6938019-0.5390625,1.1130676-0.5390625c0.6655121,0.0083008,1.4541473,0.4824829,1.7103729,1.7852173
	c2.8617096,16.4231873,15.9589996,25.480835,36.8843842,25.5257568c35.2538757,0,62.6746674-34.3587646,62.7412109-63.917511
	c0.029953-12.7795105-4.1361542-23.3561707-12.04245-30.5886383c-7.9012909-7.2307892-19.4978638-11.0691376-33.53685-11.0990906
	c-39.0789185,0-76.1080399,35.5866241-76.192894,73.2263641c-0.0183029,9.2705994,1.5190277,22.762207,8.9511414,34.3854065
	c9.2639389,14.4981689,25.0149612,21.8737183,46.8138351,21.9203186c58.8629456,0,96.6640778-56.2608032,133.3471222-118.9387817
	l0.479187-0.8235779l-2.6287842-1.1979218c-25.1297607-12.2970123-67.1934967-32.8779907-65.5130768-60.433548
	c1.8534546-30.4838257,80.8731232-49.2812271,156.199173-49.8419266c10.8079529-5.375679,21.4661255-8.1059418,31.8514404-8.1059418
	c3.2277527,0.0066528,5.4771729,1.4840927,5.4771729,3.5937653c-0.0033264,2.2877045-2.8284302,4.3308258-7.9495544,5.7533569
	c-6.1094055,1.6970596-15.1703491,2.5572357-26.9332886,2.5572357l-1.4641418-0.0033264
	c-27.5854797,16.7027054-47.5808105,54.3540878-68.747467,94.2149887
	c-2.0996704,3.9614563-6.7782288,12.7329102-6.7782288,12.7329102l0.8451843,0.2745361
	c3.3309021,1.4358368,7.4970093,2.194519,12.04245,2.194519c12.781189,0,29.3657532-6.0994263,37.6047974-19.7274628
	c7.966217-13.1721649,9.0077209-23.2413635,3.5937805-34.7580719c-0.2296143-0.6821442-0.1530762-1.2561493,0.1796875-1.7253418
	c0.3560486-0.4741669,0.8984375-0.7453613,1.4674683-0.7453613c0.6455383,0,1.2112122,0.3161163,1.5872498,0.8901215
	c6.0994263,13.0856476,4.7650757,25.0498962-4.2526245,38.9191895
	c-13.0640259,20.0984802-34.526825,21.6707611-40.7959595,21.6757507c-5.3673401,0-10.36203-0.9433746-13.7062378-2.5855255
	l-0.7653198-0.3760071l-0.3028259,0.710434c-32.9894714,60.4901276-71.322998,119.5460663-144.5410461,119.5460663H167.4513397z
	 M379.3722534,124.3061447c-33.5185547,2.6454163-113.6496277,11.366951-133.8013611,35.1241074
	c-3.4040985,4.0146942-4.9381104,8.3288879-4.5554352,12.8210907c2.1063538,24.6090088,41.6244965,43.6742859,60.6149139,52.836731
	l2.7518921,1.3310242l1.9066772-3.515564c23.3561707-39.8791962,45.4146118-77.5355682,73.6090698-97.1266098l2.455719-1.7037125
	L379.3722534,124.3061447z"/>
</svg>
