<?xml version="1.0" encoding="utf-8"?>
<!-- Generator: Adobe Illustrator 19.1.0, SVG Export Plug-In . SVG Version: 6.00 Build 0)  -->
<svg version="1.1" id="Layer_1" xmlns="http://www.w3.org/2000/svg" xmlns:xlink="http://www.w3.org/1999/xlink" x="0px" y="0px"
	 viewBox="-155 33.3 530 530" style="enable-background:new -155 33.3 530 530;" xml:space="preserve">
<style type="text/css">
	.st0{fill:#FEFEFE;}
</style>
<path class="st0" d="M-79.8,238.9c-25.7,0-46.5,25.8-46.5,57.6c0,19.9,8.1,37.4,20.5,47.8c0.4-0.7,0.9-1.3,1.2-2
	c0.4-0.8,0.8-1.6,1-2.4c0.2-0.8,0.5-1.5,1.1-2.1c1-0.9,1.7-1.9,2.2-3.1c0.3-0.9,0.8-1.6,1.8-2c0.3-0.1,0.5-0.4,0.7-0.7
	c1.9-3.2,3.8-6.4,5.1-10c-0.1-0.1-0.1-0.2-0.2-0.3c-1.3-1.6-1.3-2.3,0-3.9c0.4-0.6,0.9-1.1,1.4-1.6c-2.4-0.3-3.2-1.7-2.1-3.5
	c0.1,0.6,0.1,1.1,0.2,1.6c0.1,0.8,0.7,0.7,1.3,0.7s0.8-0.4,0.6-1c-0.3-1-0.6-2-1-3c-0.5-1.5-1.5-2.2-3-2.5c-1-0.2-1.9-0.1-2.9-0.3
	c-1.2-0.2-2.4-0.3-3.5-0.7c-1.7-0.7-2.1-2-1.6-3.6c0.2-0.6,0.4-1.1,0.6-1.7c-3.3-0.4-4.1-0.9-4.4-3.1c2.4,1.4,2.8,1.5,3.9,0.2
	c-0.3-0.1-0.7-0.2-1-0.4c-1.1-0.4-2.2-0.8-3.3-1.4c-1.7-0.9-2.6-2.4-2.7-4.3c-0.1-1.2,0-2.4,0-3.5c-0.7-0.2-1.3-0.2-1.7-0.5
	c-2.1-1.3-2.3-3.5-0.5-5.2c0.6-0.6,1.3-1.1,2-1.6c0.4-0.4,0.7-0.8,0.2-1.3l0,0c-0.7,0.2-1.4,0.5-2,0.4c-0.6,0-1.3-0.4-1.6-0.9
	c-1.1-1.6-0.1-3.6,1.8-4c0.5-0.1,1-0.2,1.6-0.3c-0.1-0.4-0.1-0.8-0.3-1c-0.3-0.5-0.7-1-1-1.5c-1.2-1.6-1.1-3.5,0.1-5.1
	c0.7-1,1.8-1.5,2.9-1.9c3.8-1.5,3.5-1.2,4.9-5c0.5-1.3,1.3-2.4,2.4-3.2c2.1-1.6,6.3-1.9,8.8-1.3c2.2,0.5,3.7,0.9,5.6,2
	c0,0.1-0.3,0.7-0.4,1s-0.2,0.6-0.3,1s-0.2,0.8-0.3,1.2c-0.1,0.4-0.2,0.9-0.3,1.3c-0.1,0.5-0.2,0.9-0.3,1.4s-0.2,1-0.3,1.5
	c-0.2,1-0.3,2-0.5,2.9c-0.1,0.9-0.3,1.8-0.4,2.6c-0.1,2,0.2,2.8,0.2,2.8s0.2-1,0.4-2.5c0.1-0.7,0.3-1.6,0.4-2.5
	c0.2-0.9,0.4-1.9,0.6-2.9c0.1-0.5,0.2-1,0.3-1.5s0.2-1,0.4-1.4c0.1-0.5,0.2-0.9,0.4-1.3c0.1-0.4,0.2-0.8,0.4-1.2
	c0.1-0.4,0.2-0.7,0.4-1c0.1-0.3,0.2-0.5,0.3-0.7c0-0.1,0.1-0.1,0.1-0.2c0.1,0.1,0.3,0.1,0.4,0.2c3.1,1.8,6.3,2.1,9.6,1.5
	c-0.3,0.3-0.6,0.6-0.9,0.9c-0.6,0.6-1.2,1.3-1.9,2c-0.7,0.8-1.4,1.6-2.1,2.4c-0.3,0.4-0.7,0.9-1,1.3c-0.3,0.4-0.6,0.8-0.9,1.2
	c-0.6,0.8-1.2,1.6-1.6,2.3c-0.5,0.7-0.8,1.2-1.1,1.6c-0.3,0.4-0.4,0.6-0.4,0.6s0.4-0.1,0.7-0.5c0.3-0.4,3.1-3.7,3.7-4.5
	c0.3-0.4,0.6-0.8,1-1.2c0.3-0.4,0.7-0.8,1-1.2c0.7-0.8,1.4-1.6,2.1-2.4c0.7-0.7,1.4-1.4,1.9-2c0.6-0.6,1.1-1,1.4-1.3
	c0.1-0.1,0.5-0.2,0.7-0.3c1.5-0.4,0.7-0.4,2.2-0.8c3.5-0.9,5.3,0.6,8.3,2.8c0.9,0.7,2,1.2,3,1.7c2,1,2.6,1.8,3.4,3.5
	c0.3,0.7,1.2,2.4,1.7,2.9c1.7,1.8,1.7,4.2,2.4,6.6c0.2,0.7,0.4,1.6,0.5,2.5c0.2,0.6,0.5,1.2,0.6,1.9c0.1,0.4,0.3,0.8,0.4,1.2
	c0.1,0,0.2,0,0.3,0c0.7,0,1.3-0.2,1.8-0.4c0.5-0.2,0.8-0.4,0.8-0.4l0.1,0.1c0,0-0.2,0.3-0.6,0.7s-1.1,0.8-1.8,1.1
	c-0.1,0-0.1,0-0.2,0.1c1.5,4.5,2.3,4.5,3.6,6.4c1.5,2.1,4,4.1,3.1,6.4c-0.5,1.3-3.6,0.7-4.2,1.7s-0.7,2.9-0.8,3.7
	c-0.1,0.8,0.8,3.3-0.1,4.9s-0.3,2.9,0.1,4.8c0.5,1.9,0.8,4.5-2.7,5.5c-1.6,0.4-3.6,0.6-5.8,0.9c-1.6,0.4-3.2,0.9-4.7,1.5
	c-1.4,0.6-2.5,1.3-3.2,2.7c-1.1,2-2.2,4-3.1,6.1c-1.2,3-2.3,6-3.3,9.1c-0.5,1.6-0.3,3.1,0.9,4.4c0.7,0.7,0.9,1.6,0.9,2.6
	c0,0.8,0.2,1.7,0.5,2.4c0.6,1.2,1.3,2.4,2,3.5c0.3,0.4,0.5,0.9,0.8,1.3c19.1-7.1,33.1-29.1,33.1-55.2
	C-33.3,264.7-54.1,238.9-79.8,238.9z"/>
<path class="st0" d="M282.6,340.4c1-2.1-1-8.1-2.4-10.1c-1.4,3.5-2.7,6.8-4.1,10c-0.1,0-0.2-0.1-0.3-0.1c0.4-3.6,1.1-7.1,3-10.3
	c-1.2-0.9-2.7-1.1-3.2-2.6c1.7-0.6,2.7,1.1,4.4,1.1c-0.9-3.4-0.7-2.2-2.1-5.3c0.5-0.3,3.7-5.6,4.4-5.9c-0.2-0.1-0.9-0.2-1.9-0.2
	c-1.5,0.2-4.2,0.5-6,0.3c-2.7-0.3-2.8-3.3-2.2-4.8c0.2-0.5,0.2-1,0.2-1.5c-0.1-0.2-0.2-0.3-0.3-0.5c-0.2-0.3-0.3-0.7-0.4-1.2
	c-0.1-0.2-0.3-0.4-0.5-0.6c-0.4-0.5-0.4-1.1-0.4-1.6c-0.1-0.4-0.2-0.9-0.3-1.5c-0.3-0.6-0.3-1-0.1-1.4c0-1.1,0-2.3,0-3.6
	c-0.2-0.3-0.5-0.6-0.9-0.6c-1.5,0-2.7-1-3.2-2.2c-0.3-0.6,0.6-3,3.5-6.4c2.4-2.8,3.2-5.2,3.3-7.1c-0.7-1.2-0.9-2.4-0.9-3.6
	c-0.4-1-0.7-2-0.1-3.5c0.7-1.6,3.5-5.8,5.8-8.9l0,0c-0.1,0-4.3,2.7-4.4,2.7c-0.5,1.2-1,2.3-1.6,3.7c-0.1-1.7,0.3-2.9,0.9-4.1
	c0.3-0.5,0.6-1,0.6-1.5c0.1-2.2,2-3.5,2.8-5.3c0-0.1,0.2-0.1,0.3-0.2c0.5-0.5,0.9-1,1.4-1.5c0.7-0.7,1.3-1.4,2-2
	c0.3-0.3,0.6-0.5,1-0.7c1.5-0.9,2.9-1.9,4.5-2.5c1-0.4,2.1-0.6,2.8-1.4c0.1-0.1,0.4-0.2,0.6-0.2c1.8-0.3,3.6-0.4,5.2-1
	c2.6-0.9,5,0,7.5,0.2c0.6,0,1.1,0.2,1.7,0.2c1.2-0.2,2.1,0.2,3.1,0.8c0.5,0.3,1.1,0.7,1.7,0.7c2.1,0,3.8,0.9,5.5,2.1
	c1.7,1.3,3.4,2.5,5,3.8c1.1,0.9,2.1,1.8,3,2.7c3.2,3.2,5.4,7,6.7,11.4c1.6,5.4,1.8,10.8-0.2,16.1c-1,2.8-2.3,5.5-3.3,8.3
	c-0.9,2.6-2,5.2-1,8c0.3,1,0.8,1.9,1.1,2.9c0.5,1.7,0,2.6-1.9,3.1c1.1,4.1,2.2,8.3,3.4,12.4c0.6,2.1,1,4.2,0.8,6.4
	c-0.1,1,0.2,2.2,0.6,3.1c0.6,1.4,1.2,2.7,1.9,4.1c10.1-10.6,16.5-26.4,16.5-44c0-31.8-20.8-57.6-46.5-57.6s-46.5,25.8-46.5,57.6
	c0,22.5,10.4,42,25.6,51.5C280.2,345.5,281.4,343,282.6,340.4z"/>
</svg>
