<?xml version="1.0" encoding="utf-8"?>
<!-- Generator: Adobe Illustrator 19.1.0, SVG Export Plug-In . SVG Version: 6.00 Build 0)  -->
<svg version="1.1" id="Layer_1" xmlns="http://www.w3.org/2000/svg" xmlns:xlink="http://www.w3.org/1999/xlink" x="0px" y="0px"
	 viewBox="0 0 225.9 234.6" style="enable-background:new 0 0 225.9 234.6;" width="60px" height="60px" xml:space="preserve">
<g>
	<path fill="#FEFEFE" d="M64.3,87.8c-2.3-1.6-4.5-3.6-6.3-5.8c-3.6-4.3-5.9-9.5-6.8-15c2.2-1.1,4.5-1.8,6.9-1.9
		c0.6,4.6,2.5,8.8,5.4,12.4c1.4,1.7,3.1,3.3,4.9,4.5c9.1,6.4,21.4,5.9,30-1.2c10.5-8.7,12-24.3,3.3-34.9c-1.4-1.7-3.1-3.2-4.9-4.5
		c-8.9-6.2-20.9-5.9-29.4,0.7c-3-0.7-6.1-1-9.1-0.9c1.2-1.5,2.6-2.8,4.1-4.1c11-9.1,26.8-9.7,38.5-1.5c2.3,1.6,4.5,3.6,6.3,5.8
		c11.2,13.5,9.2,33.6-4.3,44.8C91.8,95.3,75.9,95.9,64.3,87.8L64.3,87.8z"/>
	<path fill="#FEFEFE" d="M40.4,107.5c-2.3-1.6-4.5-3.6-6.3-5.8c-5.4-6.6-7.9-14.8-7.1-23.3c0.8-8.5,4.9-16.1,11.4-21.5
		c11-9.1,26.8-9.7,38.5-1.5c2.3,1.6,4.5,3.6,6.3,5.8c3.6,4.3,5.9,9.5,6.8,15c-2.2,1.1-4.5,1.8-6.9,1.9c-0.6-4.6-2.5-8.8-5.4-12.4
		c-1.4-1.7-3.1-3.2-4.9-4.5c-9.1-6.4-21.4-5.9-30,1.2C37.8,66.5,34.6,72.4,34,79c-0.6,6.6,1.3,13,5.5,18.1c1.4,1.7,3.1,3.3,4.9,4.5
		c8.9,6.2,20.9,5.9,29.4-0.7c3,0.7,6.1,1,9.1,0.9c-1.2,1.5-2.6,2.8-4.1,4.1C67.9,115,52.1,115.6,40.4,107.5L40.4,107.5z"/>
</g>
<g>
	<g>
		<path fill="#FEFEFE" d="M192.8,16.4c0.6-5.9,2.6-9.7,5.1-12.9c2.9-3.9,7.7-0.6,7.7-0.6s-2.9-5.1-7.8-1.7c-4.7,3.3-6,8.6-6.7,16.3
			C175.1,28,173,45.9,167,72.6c-4.3,19.3-15,30.1-24.4,36c15-13,5.1-3.7-5.5,1.7c-10.6,5.4-17.2,4.7-17.2,4.7
			c14.7,1.8,11,11,10.9,10.8c-3.3-2.9-5.8,1-4.6,3.3c1.2,2.3,6.6,3.5,8.1-3.3c1.5-6.7-6.4-10.5-6.7-10.4c0,0,0,0,0,0
			c1.3-0.2,2.6-0.4,3.8-0.7c1-0.1,2-0.3,2.9-0.5c3,0.6,9.9,2.7,7.1,9.1c0.1,0.2-3.1-1.6-3.7,2.4c-0.5,2.7,4.5,3.3,5.9-0.3
			c1.4-3.4-0.5-11-7.2-11.6c28.8-6.9,48.9-34.4,49.6-38.1c0.8-4-1.1-6-1.1-6s7.4-11.8,8.6-16.7c0.6-2.8-1.3-7.3-1.3-7.3
			s2-4.2,3.1-9.5c1.1-5.4-1-8.2-2.4-9.8c-0.2-1.9-0.3-3.7-0.4-5.3c9.9-6.7,20.6-5.3,25.1-2.2c4.9,3.3,5.3,8.8,3.1,11.8
			c-2.2,3-5.7,0-5-1.5c0.7-1.5,2.7-1.6,2.7-1.6s-2.7-4.8-5.9-0.2c-3.3,4.6,5.4,11.9,11.1,4.2C232.2,20,214,3.9,192.8,16.4z
			 M185.2,59.9c-10.1,36-34.9,48.7-48.2,53c10.8-4.1,19.1-12.1,24.8-20.9c7.6-11.6,8.7-22.5,13.5-41.7c2.4-9.6,5.6-16.7,8.9-21.1
			c2.1-2.8,4.3-5.1,6.6-6.9C190.1,31.9,189.5,44.3,185.2,59.9z"/>
		<path fill="#FEFEFE" d="M138.9,101.6c4.5-11.2-6.7-11.8-8.3-7.7c-1.6,4.1,1.5,5,1.5,5s-0.6-3.1,2.4-3.7c2.9-0.6,8,11.4-16.1,18.9
			C118.3,114.1,134.3,112.8,138.9,101.6z"/>
	</g>
	<g>
		<path fill="#FEFEFE" d="M30.2,232.4c7.5-5.9,0.4-14.9-4-11.6c-4.4,3.4,0.2,6.2,0.2,6.2s0.1-2.1,1.5-2.8c1.4-0.8,4.4,3,1.4,5.2
			c-2.9,2.3-8.2,1.8-11.3-3.2c-3-4.7-4.2-15.8,2.2-26.1c1.6,0,3.2,0.2,5.1,0.4c1.5,1.5,4.2,3.6,9.4,2.5c5.2-1.1,9.2-3.2,9.2-3.2
			s4.3,2,7,1.3c4.7-1.1,16.1-8.9,16.1-8.9s1.9,2,5.8,1.2c3.5-0.8,30-21.6,36.7-51.5c0.5,7,7.9,9,11.2,7.6c3.5-1.5,2.9-6.6,0.3-6.2
			c-3.8,0.7-2.1,4-2.3,3.9c-6.1,2.8-8.1-4.4-8.7-7.5c0.2-1,0.4-2,0.5-3.1c0.3-1.3,0.5-2.6,0.7-4c0,0,0,0,0,0c0,0.2,3.5,8.4,10,6.9
			c6.5-1.5,5.4-7.1,3.1-8.4c-2.2-1.2-6,1.4-3.2,4.8c0.2,0-8.7,3.9-10.3-11.4c0,0,0.6,6.8-4.5,17.9c-5.2,11.1-14.1,21.3-1.6,5.8
			c-5.8,9.8-16.2,20.8-34.7,25.3c-25.7,6.2-42.8,8.3-53,25c-7.4,0.7-12.5,2-15.7,6.9c-3.3,5.1,1.6,8.1,1.6,8.1s-3.1-4.9,0.6-8
			c3.1-2.6,6.8-4.7,12.4-5.3C3.7,222.2,19.1,241.2,30.2,232.4z M21.6,198.1c1.7-2.4,3.9-4.7,6.6-6.9c4.2-3.4,11-6.7,20.3-9.2
			c18.5-4.9,29-6,40.1-13.9c8.4-6,16.1-14.5,20.1-25.8c-4.2,13.7-16.4,39.6-51.1,50C42.6,196.8,30.7,197.4,21.6,198.1z"/>
		<path fill="#FEFEFE" d="M97.8,144.2c-10.8,4.7-11.3-7-7.4-8.7c3.9-1.7,4.8,1.5,4.8,1.5s-2.9-0.6-3.6,2.5c-0.6,3.1,10.9,8.4,18.2-16.7
			C109.9,122.9,108.6,139.5,97.8,144.2z"/>
	</g>
</g>
</svg>
