<?xml version="1.0" encoding="utf-8"?>
<!-- Generator: Adobe Illustrator 19.1.0, SVG Export Plug-In . SVG Version: 6.00 Build 0)  -->
<svg version="1.1" id="Layer_1" xmlns="http://www.w3.org/2000/svg" xmlns:xlink="http://www.w3.org/1999/xlink" x="0px" y="0px"
	 viewBox="-155 33.3 530 530" style="enable-background:new -155 33.3 530 530;" xml:space="preserve">
<style type="text/css">
	.st0{fill:#FEFEFE;}
</style>
<path class="st0" d="M86.7,307.1c-6,0-12.5-3.9-12.5-12.5c0-8,5.3-19.2,14.9-31.6l0.7-0.9l-1,0.3c-3.2,0.6-7.6,1.4-18.2,3.3l-2,0.4
	l-0.1,0.1C56.2,284.4,41,307,21.8,307c-4.6,0-7.7-3-7.7-7.4c0-6.5,4.2-13,12-18.7l0.4-0.3l-0.4-0.3c-3-2.2-6.5-6.4-6.5-13.5
	c0-16.9,15.6-30.3,45.2-38.6c23-6.5,46.6-7.8,50.3-7.8c0.5,0,1,0.4,1,0.9s-0.4,0.9-1,0.9c-16.9,0-30.2,19.7-44.3,40.5l-0.9,1.3
	l0.9-0.2c2.4-0.5,5-0.9,7.4-1.3c4.4-0.8,9-1.5,13.1-2.4c0,0,0.1,0,0.2-0.1c17.1-20.9,45.2-43.3,59.8-43.3c4.9,0,7.6,2.5,7.6,7.1
	c0,15.8-30.6,29-59.2,36.2c0,0-0.1,0-0.2,0.1c-12.8,16-20.5,30.1-20.5,37.7c0,5,2.9,7.6,8.4,7.6c14.5,0,27.5-16.5,27.5-24.3
	c0-3.5-1.9-5.3-5.4-5.3c-10.5,0-18.2,14.5-18.2,20.7c0,1.7,0.9,2.7,1.8,2.7c0.8,0,1.1,0.4,1.1,0.8s-0.4,0.9-1.6,0.9
	c-2.8,0-5.2-2.9-5.2-6.4c0-7.9,9.8-20.6,21.4-20.6c4.9,0,7.9,2.7,7.9,7.3C116.9,289.8,103.2,307.1,86.7,307.1z M27.9,281.6
	c-7.7,5.4-12,11.8-12,17.9c0,3.5,2.2,5.6,5.8,5.6c10.9,0,23.6-17.5,37-36l0.7-0.9l-1,0.3c-11.4,3-20.9,6.9-28.1,11.4l-0.7,0.4
	l0.7,0.2c2,0.9,4.5,1.3,7.2,1.3c3,0,5.9-0.7,8.5-2.1c0.1-0.1,0.3-0.1,0.5-0.1c0.4,0,0.8,0.2,0.9,0.6c0,0.1,0.1,0.7-0.6,1.1
	c-2.9,1.6-6.1,2.4-9.3,2.4c-3.4,0-6.6-0.7-9.2-2.1l-0.2-0.1L27.9,281.6z M101.1,223.3c-23.9,2.6-79.6,12.1-79.6,43.5
	c0,5.3,2.3,9.8,6.4,12.5l0.2,0.1l0.2-0.2c8-5.4,19-9.8,32.6-13.3l0.2-0.1c13.1-18,26.1-34.7,40.2-41.8L101.1,223.3z M151.4,218.4
	c-11.6,0-33.6,19.8-49.1,38.2l-0.8,1l1.2-0.4c33-8.9,54.4-22.1,54.4-33.5C157.1,220.2,155.2,218.4,151.4,218.4z"/>
<path class="st0" d="M67.4,332c-0.4,0-0.7,0-0.8,0c-4.1-0.4-7.7-2.7-10.5-7l-0.2-0.3l-0.3,0.2c-2.5,1.8-5.1,2.6-7.7,2.6
	c-0.5,0-0.9,0-1.4-0.1c-0.2,0-0.3,0-0.5-0.1c-4.5-0.8-7-3.9-6.5-7.9c0.7-5.6,7.4-8.8,12.7-11.4l0.2-0.1v-0.2c0.6-5,2.4-9.2,4.9-11.5
	c1.6-1.4,3.5-2.2,5.6-2.2c0.3,0,0.5,0,0.8,0h0.2c2.1,0.3,3.2,1.8,2.9,4c-0.6,4.4-5,7.1-10.3,9.8l-0.2,0.1v0.2
	c-0.6,4.3-0.3,8.6,0.7,12.2l0.2,0.7l0.4-0.6c1.8-2,3.4-4.6,4.1-6.9l0.1-0.3l-0.3-0.1c-2.2-1.3-2-2.8-1.9-3.4c0.2-0.9,1-1.6,1.9-1.6
	h0.2c0.7,0.1,1.3,0.4,1.6,1c0.4,0.6,0.6,1.5,0.5,2.6v0.3l0.3,0.1c0.7,0.2,1.8,0.4,3.2,0.6c1,0.1,1.9,0.2,2.8,0.2
	c4.5,0,7.5-1.5,9.2-2.8c3.3-2.5,4.8-5.1,4.2-7.4c-0.9-3.3-4-4.5-5.3-4.9c-0.1,0-0.2-0.1-0.3-0.3c-0.1-0.3-0.1-0.5-0.1-1.1v-0.2
	c0-0.1,0.1-0.3,0.2-0.4c0.1-0.1,0.2-0.1,0.3-0.1l0,0c6.4,0.7,7.5,5.2,7.7,6.1c0.7,3.5-1.7,8-5.2,9.9c-2.4,1.3-5.9,3.2-11,3.2
	c-0.9,0-1.8-0.1-2.7-0.2h-0.2c-1.4-0.2-2.5-0.4-3.3-0.7l-0.4-0.1l-0.1,0.4c-0.9,2.8-2.8,5.8-5.2,8.3l-0.2,0.2l0.1,0.2
	c1.9,4.1,4.8,6.4,8.7,6.9c0.4,0,0.8,0.1,1.1,0.1c4.8,0,8.4-4,9.9-5.7c0.2-0.2,0.4-0.4,0.5-0.5l0.1-0.1c0.1,0,0.1,0,0.2,0
	c0.1,0,0.2,0,0.3,0.1c0.2,0.1,0.2,0.3,0.1,0.5c-0.4,1.1-1.6,2.2-2.9,3.5c-0.5,0.4-1,0.9-1.4,1.4C72.3,331.8,68.8,332,67.4,332z
	 M51.8,310.5c-4.4,2.4-8.6,5.3-9.2,10.1c-0.4,2.9,0.8,4.5,3.7,5c0.1,0,0.3,0,0.4,0.1c0.4,0.1,0.8,0.1,1.3,0.1c2.3,0,4.6-0.8,6.8-2.4
	l0.3-0.2l-0.2-0.3c-1.7-3.4-2.6-7.6-2.5-11.9v-0.6L51.8,310.5z M63.4,296.1c-2.6,0-5.2,3.5-6.5,8.9l-0.2,0.9l0.8-0.5
	c3.4-1.9,7-4.2,7.4-7.4c0.1-0.6,0-1.1-0.3-1.4c-0.2-0.3-0.5-0.4-0.9-0.5C63.6,296.1,63.5,296.1,63.4,296.1z"/>
<path class="st0" d="M90.7,379.1c-8.4,0-15.3-2.5-20-7.3s-7.2-11.8-7.2-20.2c0-18.1,17.7-35.3,36.4-35.3c18.3,0,24.8,11.8,24.8,22.8
	c0,14.4-11.9,29.3-31.7,29.3c-10.7,0-17.9-5-19.2-13.4c-0.1-0.3,0-0.7,0.2-0.9c0.1-0.2,0.3-0.2,0.5-0.2c0.3,0,0.7,0.2,0.8,0.8
	c1.3,7.5,7.3,11.7,16.9,11.7c16.1,0,28.7-15.7,28.7-29.3c0-5.9-1.9-10.7-5.5-14s-8.9-5.1-15.4-5.1c-17.9,0-34.8,16.3-34.9,33.5
	c0,4.2,0.7,10.4,4.1,15.7c4.2,6.6,11.5,10,21.4,10c27,0,44.3-25.8,61.1-54.5l0.2-0.4l-1.2-0.5c-11.5-5.6-30.8-15.1-30-27.7
	c0.8-14,37-22.6,71.5-22.8c4.9-2.5,9.8-3.7,14.6-3.7c1.5,0,2.5,0.7,2.5,1.6c0,1-1.3,2-3.6,2.6c-2.8,0.8-6.9,1.2-12.3,1.2h-0.7
	c-12.6,7.6-21.8,24.9-31.5,43.1c-1,1.8-3.1,5.8-3.1,5.8l0.4,0.1c1.5,0.7,3.4,1,5.5,1c5.9,0,13.4-2.8,17.2-9c3.6-6,4.1-10.6,1.6-15.9
	c-0.1-0.3-0.1-0.6,0.1-0.8c0.2-0.2,0.4-0.3,0.7-0.3c0.3,0,0.6,0.1,0.7,0.4c2.8,6,2.2,11.5-1.9,17.8c-6,9.2-15.8,9.9-18.7,9.9
	c-2.5,0-4.7-0.4-6.3-1.2l-0.4-0.2l-0.1,0.3c-15.1,27.7-32.7,54.7-66.2,54.7l0,0L90.7,379.1L90.7,379.1z M187.7,273.5
	c-15.3,1.2-52,5.2-61.3,16.1c-1.6,1.8-2.3,3.8-2.1,5.9c1,11.3,19.1,20,27.8,24.2l1.3,0.6l0.9-1.6c10.7-18.3,20.8-35.5,33.7-44.5
	l1.1-0.8L187.7,273.5z"/>
</svg>
