<?xml version="1.0" encoding="utf-8"?>
<!-- Generator: Adobe Illustrator 19.1.0, SVG Export Plug-In . SVG Version: 6.00 Build 0)  -->
<svg version="1.1" id="Layer_1" xmlns="http://www.w3.org/2000/svg" xmlns:xlink="http://www.w3.org/1999/xlink" x="0px" y="0px"
	 viewBox="0 0 92.4 54" style="enable-background:new 0 0 92.4 54;" xml:space="preserve">
<style type="text/css">
	.st0{fill:#8a8a8a;}
	.st1{fill:#959595;}
</style>
<path class="st0" d="M65.7,54c-5.2,0-10.1-1.6-14.3-4.6c-1.2-0.9-2-2.1-2.2-3.5c-6.4,2.5-13.1,5-20.1,6.9c-2,0.6-4,1-6.2,1
	c-8.5,0-17.2-5.2-22-13.3c-1.1-1.8-1.1-3.9-0.1-5.7s2.9-2.9,4.9-2.9h3.1c1.1,0,2.2,0,3.3,0.1C13,32,14,32,15,32c2,0,3.5-0.1,4.8-0.5
	c0.1,0,0.2-0.1,0.3-0.1c4.6-0.9,9.3-2.1,13.8-3.3c-0.4-0.3-0.9-0.7-1.3-1.1c-3.9-2.9-7.6-4.8-10.9-5.6C18,21,14.2,21,9.8,21H7.2
	c-2.1,0-4-1.1-5-2.9c-1-1.8-0.9-4,0.2-5.8C5.8,7,10.5,3.1,16.2,1.2C18.4,0.4,20.7,0,23.1,0c3.6,0,7.1,0.9,10.2,2.7
	c4.2,2.3,7.9,5.7,11.4,9.1c0.7-2.7,2.5-3.8,3.9-4.3c5.1-2.3,11-4.7,17.6-4.7c3.1,0,6.1,0.5,9,1.6C85,7.6,91.7,16.7,92.4,27.4
	c0.1,1-0.1,1.9-0.5,2.7c-0.3,9.6-5.3,17-14.6,21.3c-0.1,0-0.1,0-0.2,0.1C73.3,53.1,69.4,54,65.7,54z"/>
<path class="st1" d="M86.2,29.3c0,7.7-3.6,13.4-11.4,17c-7.2,3.1-14.5,2.6-20.1-1.5c1-0.5,1.5-0.5,2.6-1c4.1-1.5,7.7-3.1,11.4-5.2
	c5.7-3.1,6.7-6.7,6.7-9.3c0-1.5-0.5-3.1-1-4.6c-1-3.1-3.1-5.2-5.7-6.2s-5.2-0.5-7.7,0.5c-5.2,2.6-7.2,0.5-10.8-4.6
	c0-1,0-1.5,0.5-1.5C57.3,9.7,65,6.6,73.3,9.7c7.7,2.6,12.9,9.8,13.4,18.1C86.2,28.2,86.2,28.8,86.2,29.3z M68.6,29.3
	c0,1.5-1,2.6-3.1,4.1L65,33.9c-3.6,1.5-7.2,2.6-11.4,4.1c-8.3,3.1-17,6.7-26.3,9.3c-7.7,2.6-17-2.1-21.7-9.8c1,0,2.1,0,3.1,0
	c4.1,0,8.3,0.5,12.4-0.5c8.3-1.5,16.5-4.1,24.3-6.2l3.1-1c2.6-1,5.7-2.1,8.3-3.1c1.5-0.5,3.1-1.5,5.2-2.1c3.6-1.5,5.2,0,5.7,2.1
	C68.6,27.7,68.6,28.2,68.6,29.3z M47.5,22.6c0,0.5-0.5,1-0.5,1.5c-5.2,3.1-5.2,3.1-10.8-1.5c-4.1-3.1-8.8-5.7-13.4-6.7
	c-4.1-0.5-8.3-0.5-12.9-0.5c-1,0-2.1,0-2.6,0c2.6-4.1,6.2-7.2,10.8-8.8c4.1-1.5,8.8-1,12.4,1c4.6,2.6,8.8,6.7,12.9,10.8
	C44.9,20,46.4,21.5,47.5,22.6z M86.2,29.3c0,7.7-3.6,13.4-11.4,17c-7.2,3.1-14.5,2.6-20.1-1.5c1-0.5,1.5-0.5,2.6-1
	c4.1-1.5,7.7-3.1,11.4-5.2c5.7-3.1,6.7-6.7,6.7-9.3c0-1.5-0.5-3.1-1-4.6c-1-3.1-3.1-5.2-5.7-6.2s-5.2-0.5-7.7,0.5
	c-5.2,2.6-7.2,0.5-10.8-4.6c0-1,0-1.5,0.5-1.5C57.3,9.7,65,6.6,73.3,9.7c7.7,2.6,12.9,9.8,13.4,18.1C86.2,28.2,86.2,28.8,86.2,29.3z
	 M68.6,29.3c0,1.5-1,2.6-3.1,4.1L65,33.9c-3.6,1.5-7.2,2.6-11.4,4.1c-8.3,3.1-17,6.7-26.3,9.3c-7.7,2.6-17-2.1-21.7-9.8
	c1,0,2.1,0,3.1,0c4.1,0,8.3,0.5,12.4-0.5c8.3-1.5,16.5-4.1,24.3-6.2l3.1-1c2.6-1,5.7-2.1,8.3-3.1c1.5-0.5,3.1-1.5,5.2-2.1
	c3.6-1.5,5.2,0,5.7,2.1C68.6,27.7,68.6,28.2,68.6,29.3z M47.5,22.6c0,0.5-0.5,1-0.5,1.5c-5.2,3.1-5.2,3.1-10.8-1.5
	c-4.1-3.1-8.8-5.7-13.4-6.7c-4.1-0.5-8.3-0.5-12.9-0.5c-1,0-2.1,0-2.6,0c2.6-4.1,6.2-7.2,10.8-8.8c4.1-1.5,8.8-1,12.4,1
	c4.6,2.6,8.8,6.7,12.9,10.8C44.9,20,46.4,21.5,47.5,22.6z"/>
</svg>
