<?xml version="1.0" encoding="utf-8"?>
<!-- Generator: Adobe Illustrator 19.1.0, SVG Export Plug-In . SVG Version: 6.00 Build 0)  -->
<svg version="1.1" id="Layer_1" xmlns="http://www.w3.org/2000/svg" xmlns:xlink="http://www.w3.org/1999/xlink" x="0px" y="0px"
	 viewBox="0 0 55.3 67.1" style="enable-background:new 0 0 55.3 67.1;" xml:space="preserve">
<path d="M27.6,0C12.4,0,0,15.3,0,34.3c0,11.8,4.8,22.3,12.2,28.4c0.3-0.4,0.5-0.8,0.7-1.2c0.3-0.5,0.5-0.9,0.6-1.5
	c0.1-0.5,0.3-0.9,0.7-1.2c0.6-0.5,1-1.1,1.3-1.8c0.2-0.5,0.5-1,1.1-1.2c0.2-0.1,0.3-0.2,0.4-0.4c1.1-1.9,2.3-3.8,3-5.9
	c0-0.1-0.1-0.1-0.1-0.2c-0.8-1-0.8-1.3,0-2.3c0.3-0.3,0.6-0.6,0.8-1c-1.4-0.2-1.9-1-1.2-2.1c0,0.4,0.1,0.7,0.1,0.9
	c0.1,0.5,0.4,0.4,0.8,0.4c0.4,0,0.5-0.3,0.4-0.6c-0.2-0.6-0.4-1.2-0.6-1.8c-0.3-0.9-0.9-1.3-1.8-1.5c-0.6-0.1-1.2-0.1-1.7-0.2
	c-0.7-0.1-1.4-0.2-2.1-0.4c-1-0.4-1.3-1.2-0.9-2.2c0.1-0.3,0.2-0.7,0.3-1c-2-0.2-2.4-0.5-2.6-1.8c1.4,0.9,1.7,0.9,2.3,0.1
	c-0.2-0.1-0.4-0.1-0.6-0.2c-0.7-0.3-1.3-0.5-2-0.8c-1-0.5-1.5-1.5-1.6-2.6c0-0.7,0-1.4,0-2.1c-0.4-0.1-0.8-0.1-1-0.3
	c-1.3-0.7-1.4-2.1-0.3-3.1c0.4-0.3,0.8-0.6,1.2-1c0.2-0.2,0.4-0.4,0.1-0.8c0,0,0,0,0,0c-0.4,0.1-0.8,0.3-1.2,0.3
	c-0.3,0-0.8-0.2-0.9-0.5c-0.6-0.9-0.1-2.2,1.1-2.4c0.3-0.1,0.6-0.1,1-0.2c-0.1-0.3-0.1-0.5-0.2-0.6c-0.2-0.3-0.4-0.6-0.6-0.9
	c-0.7-1-0.7-2.1,0-3c0.4-0.6,1.1-0.9,1.7-1.2c2.3-0.9,2.1-0.7,2.9-3c0.3-0.8,0.8-1.4,1.4-1.9c1.3-1,3.8-1.1,5.3-0.8
	c1.3,0.3,2.2,0.5,3.3,1.2c0,0-0.2,0.4-0.2,0.6c-0.1,0.2-0.1,0.4-0.2,0.6c-0.1,0.2-0.1,0.5-0.2,0.7c-0.1,0.2-0.1,0.5-0.2,0.8
	c-0.1,0.3-0.1,0.6-0.2,0.8c-0.1,0.3-0.1,0.6-0.2,0.9c-0.1,0.6-0.2,1.2-0.3,1.7c-0.1,0.6-0.2,1.1-0.2,1.5c0,1.2,0.1,1.7,0.1,1.7
	s0.1-0.6,0.2-1.5c0.1-0.4,0.2-1,0.3-1.5c0.1-0.6,0.2-1.1,0.3-1.7c0.1-0.3,0.1-0.6,0.2-0.9c0.1-0.3,0.1-0.6,0.2-0.8
	c0.1-0.3,0.1-0.5,0.2-0.8c0.1-0.2,0.1-0.5,0.2-0.7c0.1-0.2,0.1-0.4,0.2-0.6c0.1-0.2,0.1-0.3,0.2-0.4c0,0,0-0.1,0-0.1
	c0.1,0,0.2,0.1,0.2,0.1c1.8,1.1,3.7,1.3,5.7,0.9c-0.2,0.2-0.4,0.3-0.6,0.6c-0.3,0.3-0.7,0.8-1.1,1.2c-0.4,0.5-0.8,0.9-1.2,1.4
	c-0.2,0.3-0.4,0.5-0.6,0.8c-0.2,0.3-0.4,0.5-0.6,0.7c-0.4,0.5-0.7,0.9-1,1.3c-0.3,0.4-0.5,0.7-0.7,1c-0.2,0.2-0.2,0.4-0.2,0.4
	s0.2-0.1,0.4-0.3c0.2-0.2,1.8-2.2,2.2-2.7c0.2-0.2,0.4-0.5,0.6-0.7c0.2-0.2,0.4-0.5,0.6-0.7c0.4-0.5,0.8-1,1.3-1.4
	c0.4-0.4,0.8-0.8,1.2-1.2c0.3-0.3,0.6-0.6,0.9-0.8c0,0,0.3-0.1,0.4-0.2c0.9-0.2,0.4-0.2,1.3-0.5c2.1-0.5,3.1,0.4,4.9,1.7
	c0.5,0.4,1.2,0.7,1.8,1c1.2,0.6,1.6,1.1,2,2.1c0.2,0.4,0.7,1.4,1,1.8c1,1.1,1,2.5,1.4,3.9c0.1,0.4,0.2,0.9,0.3,1.5
	c0.1,0.4,0.3,0.7,0.4,1.1c0.1,0.3,0.2,0.5,0.2,0.7c0.1,0,0.1,0,0.2,0c0.4,0,0.8-0.1,1.1-0.2c0.3-0.1,0.5-0.2,0.5-0.2l0.1,0.1
	c0,0-0.1,0.2-0.4,0.4c-0.2,0.2-0.6,0.5-1.1,0.6c0,0-0.1,0-0.1,0c0.9,2.7,1.3,2.7,2.1,3.8c0.9,1.3,2.4,2.4,1.9,3.8
	c-0.3,0.8-2.1,0.4-2.5,1s-0.4,1.7-0.5,2.2c0,0.5,0.5,1.9-0.1,2.9c-0.5,1-0.2,1.8,0.1,2.9c0.3,1.1,0.5,2.7-1.6,3.2
	c-0.9,0.2-2.2,0.3-3.4,0.5c-1,0.2-1.9,0.5-2.8,0.9c-0.8,0.3-1.5,0.8-1.9,1.6c-0.6,1.2-1.3,2.4-1.8,3.7c-0.7,1.8-1.3,3.6-1.9,5.4
	c-0.3,0.9-0.2,1.8,0.6,2.6c0.4,0.4,0.5,0.9,0.5,1.5c0,0.5,0.1,1,0.3,1.5c0.3,0.7,0.8,1.4,1.2,2.1c0.2,0.3,0.3,0.5,0.5,0.8
	C47,62.8,55.3,49.7,55.3,34.3C55.3,15.3,42.9,0,27.6,0z"/>
</svg>
